<?xml version="1.0" encoding="utf-8" standalone="yes"?>
<!DOCTYPE svg PUBLIC "-//W3C//DTD SVG 1.1//EN" "http://www.w3.org/Graphics/SVG/1.1/DTD/svg11.dtd">
<svg style="fill:none;stroke:none;fill-rule:evenodd;clip-rule:evenodd;stroke-linecap:round;stroke-linejoin:round;stroke-miterlimit:1.5;" version="1.1" xmlns="http://www.w3.org/2000/svg" xmlns:xlink="http://www.w3.org/1999/xlink" width="588" height="734" viewBox="0 0 588 734"><style class="text-font-style fontImports" data-font-family="Shantell Sans">@import url(https://fonts.googleapis.com/css2?family=Shantell+Sans:wght@300..800&amp;amp;display=block);</style><rect id="" x="0" y="0" width="587.2" height="734" style="fill: #ffffff;"></rect><g id="items" style="isolation: isolate"><g id="blend" style="mix-blend-mode: normal"><g id="g-root-tf_mdlrd8sdmebu-fill" data-item-order="-646507"><g id="tf_mdlrd8sdmebu-fill-merged" stroke="none" fill="#ffffff" fill-opacity="1"><g><path d="M-0 0 H587.2 V734 H-0 V0"></path></g></g></g><g id="g-root-cp_1-1_g-1-1_18i7gsssdfapw-fill" data-item-order="-378656" transform="translate(119.4876708984375, 110)"><g id="cp_1-1_g-1-1_18i7gsssdfapw-fill-merged" stroke="none" fill="#d1f4ff" fill-opacity="1"><g><path d="M30.113 82C23.613 82 18.113 76.5 18.113 70L10.971 65.715C9.676 64.938 9.676 63.062 10.971 62.285L18.113 58 V22C18.112 15.373 23.485 10 30.112 10 H270.112C276.74 10 282.112 15.373 282.112 22 V70C282.112 76.627 276.74 82 270.112 82 H30.112"></path></g></g></g><g id="g-root-cp_2-1_g-2-1_v6qyfgsdfcat-fill" data-item-order="-378620" transform="translate(163.5999755859375, 192)"><g id="cp_2-1_g-2-1_v6qyfgsdfcat-fill-merged" stroke="none" fill="#e9ffb9" fill-opacity="1"><g><path d="M286 106L293.142 110.285C294.436 111.062 294.436 112.938 293.142 113.715L286 118C286 125 281 130 274 130 H22C15.373 130 10 124.627 10 118 V22C10 15.373 15.373 10 22 10 H274C280.627 10 286 15.373 286 22 V106"></path></g></g></g><g id="g-root-cp_1-2_g-1-2_mb3y6ksdfd3i-fill" data-item-order="-378584" transform="translate(119.4876708984375, 322)"><g id="cp_1-2_g-1-2_mb3y6ksdfd3i-fill-merged" stroke="none" fill="#d1f4ff" fill-opacity="1"><g><path d="M30.113 58C23.613 58 18.113 52.5 18.113 46L10.971 41.715C9.676 40.938 9.676 39.062 10.971 38.285L18.113 34 V22C18.112 15.373 23.485 10 30.112 10 H210.112C216.74 10 222.112 15.373 222.112 22 V46C222.112 52.627 216.74 58 210.112 58 H30.112"></path></g></g></g><g id="g-root-cp_2-2_g-2-2_hvwx58sdfapz-fill" data-item-order="-378548" transform="translate(187.60000610351562, 380)"><g id="cp_2-2_g-2-2_hvwx58sdfapz-fill-merged" stroke="none" fill="#e9ffb9" fill-opacity="1"><g><path d="M262 34L269.142 38.285C270.436 39.062 270.436 40.938 269.142 41.715L262 46C262 53 257 58 250 58 H22C15.373 58 10 52.627 10 46 V22C10 15.373 15.373 10 22 10 H250C256.627 10 262 15.373 262 22 V34"></path></g></g></g><g id="g-root-cp_1-3_g-1-3_dg3f0ssdfbi8-fill" data-item-order="-378512" transform="translate(119.4876708984375, 438)"><g id="cp_1-3_g-1-3_dg3f0ssdfbi8-fill-merged" stroke="none" fill="#d1f4ff" fill-opacity="1"><g><path d="M30.113 82C23.613 82 18.113 76.5 18.113 70L10.971 65.715C9.676 64.938 9.676 63.062 10.971 62.285L18.113 58 V22C18.112 15.373 23.485 10 30.112 10 H222.112C228.74 10 234.112 15.373 234.112 22 V70C234.112 76.627 228.74 82 222.112 82 H30.112"></path></g></g></g><g id="g-root-cp_2-3_g-2-3_4mwngsdfd35-fill" data-item-order="-378476" transform="translate(151.5999755859375, 520)"><g id="cp_2-3_g-2-3_4mwngsdfd35-fill-merged" stroke="none" fill="#e9ffb9" fill-opacity="1"><g><path d="M298 130L305.142 134.285C306.436 135.062 306.436 136.938 305.142 137.715L298 142C298 149 293 154 286 154 H22C15.373 154 10 148.627 10 142 V22C10 15.373 15.373 10 22 10 H286C292.627 10 298 15.373 298 22 V130"></path></g></g></g><g id="g-root-cp_1_g-1_1qaqfgssdfaiy-fill" data-item-order="-378440" transform="translate(25.60009765625, 566)"><g id="cp_1_g-1_1qaqfgssdfaiy-fill-merged" stroke="none" fill="#ebebeb" fill-opacity="1"><g><path d="M10 116.284C10 98.909 22.029 84.425 38.047 81.137C38.047 81.137 34.475 87.685 37.593 94.051C38.266 95.424 40.334 95.155 41.129 93.85C41.977 92.46 42.908 91.055 43.31 90.346L43.884 89.37C44.769 87.924 45.499 86.968 45.499 86.968C45.499 86.968 46.618 91.453 47.821 93.586C47.821 93.586 47.821 108.02 44.904 126.772C47.821 132.116 51.867 134.699 51.867 134.699C51.867 134.699 55.799 131.383 57.868 126.772C55.799 106.347 52.442 93.586 52.442 93.586C53.894 89.953 53.466 86.966 53.466 86.966C53.466 86.966 56.377 89.458 57.994 93.199C58.377 94.086 59.618 94.144 59.734 93.183C60.329 88.231 57.928 82.972 57.928 82.972C70.847 88.242 79.979 101.171 79.979 116.284 V139.999 H10 V116.284 M43.884 89.37C43.698 89.675 43.504 90.002 43.31 90.346L43.884 89.37"></path></g></g><g id="cp_1_g-1_1qaqfgssdfaiy-fill-merged" stroke="none" fill="#ebebeb" fill-opacity="1"><g><path d="M38.047 81.137L41.958 78.645L45.501 86.966C45.501 86.966 44.77 87.924 43.885 89.371C43.698 89.676 43.505 90.002 43.31 90.346C42.908 91.056 41.977 92.461 41.129 93.851C40.334 95.155 38.266 95.425 37.593 94.051C34.475 87.686 38.047 81.137 38.047 81.137 M57.928 82.972L55.778 80.208L53.466 86.966C53.466 86.966 56.378 89.458 57.994 93.2C58.377 94.086 59.619 94.145 59.734 93.184C60.329 88.231 57.928 82.972 57.928 82.972 M43.885 89.371L43.31 90.346L43.885 89.371"></path></g></g><g id="cp_1_g-1_1qaqfgssdfaiy-fill-merged" stroke="none" fill="#ebebeb" fill-opacity="1"><g><path d="M71.738 48.944 V37.608C71.738 37.608 59.461 40.005 50.774 37.608C42.086 35.211 37.303 28.218 37.303 28.218C37.303 31.317 36.9 42.047 31.41 48.499C30.663 48.231 30.051 48.066 28.758 48.604C27.466 49.142 26.586 50.402 26.28 51.631C26.28 51.631 21.638 35.623 24.098 29.801C27.539 21.655 32.848 19.466 32.848 19.466C35.279 10.109 49.437 8.14 57.154 11.587C64.871 15.034 68.542 20.665 74.375 14.263C84.682 29.884 79.025 45.957 71.738 48.944"></path></g></g><g id="cp_1_g-1_1qaqfgssdfaiy-fill-merged" stroke="none" fill="#ebebeb" fill-opacity="1"><g><path d="M47.821 93.586C47.821 93.586 47.821 108.02 44.904 126.772C47.821 132.116 51.867 134.698 51.867 134.698C51.867 134.698 55.799 131.383 57.868 126.772C55.799 106.347 52.442 93.586 52.442 93.586C53.894 89.953 53.464 86.955 53.464 86.955C53.464 86.955 52.071 86.324 49.724 86.324C47.404 86.324 45.499 86.967 45.499 86.967C45.499 86.967 46.617 91.453 47.821 93.586"></path></g></g></g><g id="g-root-cp_0a_g-0a_1luwxccsdfbb7-fill" data-item-order="-378432" transform="translate(41.7562255859375, 584.328125)"><g id="cp_0a_g-0a_1luwxccsdfbb7-fill-merged" stroke="none" fill="#bcbcbc" fill-opacity="1"><g><path d="M39.626 61.886L37.307 68.645C37.307 68.645 36.029 68.009 33.566 68.009C31.103 68.009 29.344 68.645 29.344 68.645L25.791 60.32 V53.863C27.266 54.628 30.42 55.674 32.435 55.754C34.451 55.835 37.785 55.754 39.633 55.111 V61.886"></path></g></g><g id="cp_0a_g-0a_1luwxccsdfbb7-fill-merged" stroke="none" fill="#bcbcbc" fill-opacity="1"><g><path d="M13.386 29.993C11.446 30.47 10 32.248 10 34.384C10 36.689 11.688 38.596 13.871 38.864C15.928 48.52 24.359 55.802 34.381 55.802C44.403 55.802 52.834 48.51 54.891 38.864C55.846 34.384 55.582 32.652 55.582 30.28C55.582 21.819 55.582 22.383 55.582 19.285C55.582 19.285 42.943 21.819 34.679 19.356C26.414 16.894 21.067 10 21.067 10C21.067 10 21.553 22.803 15.233 30.19C14.904 30 15.637 29.534 13.394 30"></path></g></g><g id="cp_0a_g-0a_1luwxccsdfbb7-fill-merged" stroke="none" fill="#bcbcbc" fill-opacity="1"><g><path d="M43.78 43.242C42.213 48.047 34.623 48.024 33.063 43.242 H43.78"></path></g></g></g><g id="g-root-cp_2_g-2_1cz9x3gsdfc3w-fill" data-item-order="-378428" transform="translate(469.5999755859375, 566)"><g id="cp_2_g-2_1cz9x3gsdfc3w-fill-merged" stroke="none" fill="#ebebeb" fill-opacity="1"><g><path d="M63.84 52.708C63.84 50.572 62.394 48.794 60.453 48.317C58.201 47.858 58.934 48.324 58.605 48.514C52.283 41.127 52.77 28.324 52.77 28.324C52.77 28.324 47.421 35.218 39.154 37.68C30.887 40.142 18.244 37.608 18.244 37.608 V48.604C18.244 50.976 17.98 52.708 18.936 57.188C20.619 65.081 26.518 71.384 34.118 73.419 V78.983C34.118 78.983 23.565 78.845 15.703 76.955C13.101 76.33 11.639 73.765 12.162 71.14C13.619 63.815 15.939 54.085 13.177 35.639C10.751 19.434 24.578 9.996 38.273 10C46.063 10.002 53.81 13.073 58.5 19.659C66.983 18.213 70.36 30.211 71.47 39.986C72.688 50.709 73.093 61.76 70.353 72.824C69.917 74.585 68.633 76.02 66.892 76.527C61.358 78.137 54.148 78.745 50.244 78.922L48.043 76.618 V72.186C54.002 69.409 58.542 63.88 59.968 57.188C62.151 56.92 63.84 55.013 63.84 52.708"></path></g></g><g id="cp_2_g-2_1cz9x3gsdfc3w-fill-merged" stroke="none" fill="#ebebeb" fill-opacity="1"><g><path d="M37.818 92.896L48.025 97.203C49.089 97.652 50.294 97.069 50.567 95.935C50.947 94.357 51.435 92.054 51.731 89.591C52.271 85.1 52.462 81.246 52.462 81.246C68.225 84.737 80 99.095 80 116.283 V139.998 H10 V116.283C10 101.599 18.624 88.977 30.967 83.438L27.824 93.203C27.321 94.766 28.817 96.228 30.341 95.664L37.818 92.896"></path></g></g><g id="cp_2_g-2_1cz9x3gsdfc3w-fill-merged" stroke="none" fill="#ebebeb" fill-opacity="1"><g><path d="M52.462 81.248L48.033 76.602 V81.167L37.819 92.898L48.025 97.204C49.089 97.653 50.294 97.07 50.568 95.936C50.948 94.358 51.435 92.055 51.731 89.592C52.271 85.101 52.462 81.248 52.462 81.248 M30.341 95.665L37.819 92.898L34.118 85.332 V79.249C34.118 79.249 31.215 83.328 30.967 83.439L27.824 93.205C27.321 94.767 28.817 96.229 30.341 95.665"></path></g></g></g><g id="g-root-cp_0b_g-0b_18jgez0sdfcw5-fill" data-item-order="-378422" transform="translate(477.8109130859375, 584.328125)"><g id="cp_0b_g-0b_18jgez0sdfcw5-fill-merged" stroke="none" fill="#bcbcbc" fill-opacity="1"><g><path d="M25.906 55.089C27.95 55.709 30.643 55.909 32.715 55.766C34.786 55.623 38.358 54.628 39.837 53.863C39.837 53.863 39.834 60.927 39.834 62.818L29.597 74.553L25.906 67 V55.089"></path></g></g><g id="cp_0b_g-0b_18jgez0sdfcw5-fill-merged" stroke="none" fill="#bcbcbc" fill-opacity="1"><g><path d="M52.242 29.993C54.183 30.47 55.629 32.248 55.629 34.384C55.629 36.689 53.94 38.596 51.757 38.864C49.699 48.52 41.266 55.802 31.241 55.802C21.216 55.802 12.782 48.51 10.725 38.864C9.769 34.384 10.034 32.652 10.034 30.28C10.034 21.819 10.034 22.383 10.034 19.285C10.034 19.285 22.677 21.819 30.943 19.356C39.21 16.894 44.559 10 44.559 10C44.559 10 44.072 22.803 50.394 30.19C50.723 30 49.99 29.534 52.234 30"></path></g></g><g id="cp_0b_g-0b_18jgez0sdfcw5-fill-merged" stroke="none" fill="#bcbcbc" fill-opacity="1"><g><path d="M32.575 43.238C31.008 48.043 23.416 48.02 21.855 43.238 H32.575"></path></g></g></g><g id="g-root-tx_register_zofvt8sdfaj2-fill" data-item-order="0" transform="translate(37.5999755859375, 14)"><g id="tx_register_zofvt8sdfaj2-fill-merged" stroke="none" fill="#484848" fill-opacity="1"><g><text style="font: bold 25px &quot;Shantell Sans&quot;, cursive; white-space: pre;" transform="translate(256, 28)" font-weight="bold" font-size="25px" font-family="'Shantell Sans', cursive"><tspan x="-238.21" y="16.2" dominant-baseline="ideographic">Registering .edu.in or .ac.in Domains</tspan></text></g></g></g><g id="g-root-tx_howcanir_hx5vbgsdfcw7-fill" data-item-order="0" transform="translate(139.5999755859375, 122)"><g id="tx_howcanir_hx5vbgsdfcw7-fill-merged" stroke="none" fill="#1eabda" fill-opacity="1"><g><text style="font: 20px &quot;Shantell Sans&quot;, cursive; white-space: pre;" transform="translate(10, 34)" font-size="20px" font-family="'Shantell Sans', cursive"><tspan x="2" y="1.6" dominant-baseline="ideographic">How can I register a </tspan><tspan x="2" y="25.6" dominant-baseline="ideographic">.edu.in or .ac.in domain?</tspan></text></g></g></g><g id="g-root-tx_register_4mbu18sdfbbc-fill" data-item-order="0" transform="translate(175.5999755859375, 204)"><g id="tx_register_4mbu18sdfbbc-fill-merged" stroke="none" fill="#92bd39" fill-opacity="1"><g><text style="font: 20px &quot;Shantell Sans&quot;, cursive; white-space: pre;" transform="translate(10, 58)" font-size="20px" font-family="'Shantell Sans', cursive"><tspan x="2" y="-22.4" dominant-baseline="ideographic">Register through ERNET </tspan><tspan x="2" y="1.6" dominant-baseline="ideographic">India, the official </tspan><tspan x="2" y="25.6" dominant-baseline="ideographic">registrar for educational </tspan><tspan x="2" y="49.6" dominant-baseline="ideographic">domains in India.</tspan></text></g></g></g><g id="g-root-tx_whatisth_1qbzdn0sdfcp5-fill" data-item-order="0" transform="translate(139.5999755859375, 334)"><g id="tx_whatisth_1qbzdn0sdfcp5-fill-merged" stroke="none" fill="#1eabda" fill-opacity="1"><g><text style="font: 20px &quot;Shantell Sans&quot;, cursive; white-space: pre;" transform="translate(10, 22)" font-size="20px" font-family="'Shantell Sans', cursive"><tspan x="2" y="13.6" dominant-baseline="ideographic">What is the cost?</tspan></text></g></g></g><g id="g-root-tx_885yearp_1d15ccssdfb4a-fill" data-item-order="0" transform="translate(199.5999755859375, 392)"><g id="tx_885yearp_1d15ccssdfb4a-fill-merged" stroke="none" fill="#92bd39" fill-opacity="1"><g><text style="font: 20px &quot;Shantell Sans&quot;, cursive; white-space: pre;" transform="translate(10, 22)" font-size="20px" font-family="'Shantell Sans', cursive"><tspan x="2" y="13.6" dominant-baseline="ideographic">₹885/year per domain.</tspan></text></g></g></g><g id="g-root-tx_whatserv_v9vbv0sdfdhf-fill" data-item-order="0" transform="translate(139.5999755859375, 450)"><g id="tx_whatserv_v9vbv0sdfdhf-fill-merged" stroke="none" fill="#1eabda" fill-opacity="1"><g><text style="font: 20px &quot;Shantell Sans&quot;, cursive; white-space: pre;" transform="translate(10, 34)" font-size="20px" font-family="'Shantell Sans', cursive"><tspan x="2" y="1.6" dominant-baseline="ideographic">What services are </tspan><tspan x="2" y="25.6" dominant-baseline="ideographic">included?</tspan></text></g></g></g><g id="g-root-tx_wehandle_hz1akssdfbwk-fill" data-item-order="0" transform="translate(163.5999755859375, 532)"><g id="tx_wehandle_hz1akssdfbwk-fill-merged" stroke="none" fill="#92bd39" fill-opacity="1"><g><text style="font: 20px &quot;Shantell Sans&quot;, cursive; white-space: pre;" transform="translate(10, 70)" font-size="20px" font-family="'Shantell Sans', cursive"><tspan x="2" y="-34.4" dominant-baseline="ideographic">We handle all paperwork </tspan><tspan x="2" y="-10.4" dominant-baseline="ideographic">and documentation and </tspan><tspan x="2" y="13.6" dominant-baseline="ideographic">navigate bureaucratic </tspan><tspan x="2" y="37.6" dominant-baseline="ideographic">processes on behalf of </tspan><tspan x="2" y="61.6" dominant-baseline="ideographic">colleges.</tspan></text></g></g></g><g id="g-root-tf_mdlrd8sdmebu-stroke" data-item-order="-646507"></g><g id="g-root-cp_1-1_g-1-1_18i7gsssdfapw-stroke" data-item-order="-378656" transform="translate(119.4876708984375, 110)"><g id="cp_1-1_g-1-1_18i7gsssdfapw-stroke" fill="none" stroke-linecap="round" stroke-linejoin="round" stroke-miterlimit="4" stroke="#ffffff" stroke-width="2" stroke-opacity="1"><g><path d="M 18.112305 22C 18.112306 15.3726 23.484905 9.999999 30.112305 10M 270.112305 10L 30.112305 10M 282.112305 22C 282.112305 15.3726 276.739705 10.000001 270.112305 10M 282.112305 70L 282.112305 22M 270.112305 82C 276.739705 82 282.112305 76.6274 282.112305 70M 270.112305 82L 30.112305 82M 30.1127 82C 23.4853 82 18.1127 76.6274 18.1127 70L 10.971 65.715C 9.6763 64.9382 9.6763 63.0618 10.971 62.285L 18.1127 58M 18.112305 58L 18.112305 22"></path></g></g></g><g id="g-root-cp_2-1_g-2-1_v6qyfgsdfcat-stroke" data-item-order="-378620" transform="translate(163.5999755859375, 192)"><g id="cp_2-1_g-2-1_v6qyfgsdfcat-stroke" fill="none" stroke-linecap="round" stroke-linejoin="round" stroke-miterlimit="4" stroke="#ffffff" stroke-width="2" stroke-opacity="1"><g><path d="M 10 22C 10.000001 15.3726 15.3726 9.999999 22 10M 274 10L 22 10M 286 22C 286 15.3726 280.6274 10.000001 274 10M 286 106L 286 22M 273.999985 130C 280.627385 130 285.999985 124.6274 285.999985 118L 293.141685 113.715C 294.436385 112.9382 294.436385 111.0618 293.141685 110.285L 285.999985 106M 274 130L 22 130M 22 130C 15.3726 130 10 124.6274 10 118M 10 117.999207L 10 22"></path></g></g></g><g id="g-root-cp_1-2_g-1-2_mb3y6ksdfd3i-stroke" data-item-order="-378584" transform="translate(119.4876708984375, 322)"><g id="cp_1-2_g-1-2_mb3y6ksdfd3i-stroke" fill="none" stroke-linecap="round" stroke-linejoin="round" stroke-miterlimit="4" stroke="#ffffff" stroke-width="2" stroke-opacity="1"><g><path d="M 18.112305 22C 18.112306 15.3726 23.484905 9.999999 30.112305 10M 210.112305 10L 30.112305 10M 222.112305 22C 222.112305 15.3726 216.739705 10.000001 210.112305 10M 222.112305 46L 222.112305 22M 210.112305 58C 216.739705 58 222.112305 52.6274 222.112305 46M 210.112305 58L 30.112305 58M 30.1127 58C 23.4853 58 18.1127 52.6274 18.1127 46L 10.971 41.715C 9.6763 40.9382 9.6763 39.0618 10.971 38.285L 18.1127 34M 18.112305 34L 18.112305 22"></path></g></g></g><g id="g-root-cp_2-2_g-2-2_hvwx58sdfapz-stroke" data-item-order="-378548" transform="translate(187.60000610351562, 380)"><g id="cp_2-2_g-2-2_hvwx58sdfapz-stroke" fill="none" stroke-linecap="round" stroke-linejoin="round" stroke-miterlimit="4" stroke="#ffffff" stroke-width="2" stroke-opacity="1"><g><path d="M 9.999969 22C 9.99997 15.3726 15.372569 9.999999 21.999969 10M 249.999938 10L 21.999965 10M 261.999954 22C 261.999954 15.3726 256.627354 10.000001 249.999954 10M 261.999954 34L 261.999954 22M 249.999969 58C 256.627369 58 261.999969 52.6274 261.999969 46L 269.141669 41.715C 270.436369 40.9382 270.436369 39.0618 269.141669 38.285L 261.999969 34M 249.999938 57.999985L 21.999965 57.999985M 21.999969 58C 15.372569 58 9.999969 52.6274 9.999969 46M 9.999969 45.9998L 9.999969 22"></path></g></g></g><g id="g-root-cp_1-3_g-1-3_dg3f0ssdfbi8-stroke" data-item-order="-378512" transform="translate(119.4876708984375, 438)"><g id="cp_1-3_g-1-3_dg3f0ssdfbi8-stroke" fill="none" stroke-linecap="round" stroke-linejoin="round" stroke-miterlimit="4" stroke="#ffffff" stroke-width="2" stroke-opacity="1"><g><path d="M 18.112305 22C 18.112306 15.3726 23.484905 9.999999 30.112305 10M 222.112305 10L 30.112305 10M 234.112305 22C 234.112305 15.3726 228.739705 10.000001 222.112305 10M 234.112305 70L 234.112305 22M 222.112305 82C 228.739705 82 234.112305 76.6274 234.112305 70M 222.112305 82L 30.112305 82M 30.1127 82C 23.4853 82 18.1127 76.6274 18.1127 70L 10.971 65.715C 9.6763 64.9382 9.6763 63.0618 10.971 62.285L 18.1127 58M 18.112305 58L 18.112305 22"></path></g></g></g><g id="g-root-cp_2-3_g-2-3_4mwngsdfd35-stroke" data-item-order="-378476" transform="translate(151.5999755859375, 520)"><g id="cp_2-3_g-2-3_4mwngsdfd35-stroke" fill="none" stroke-linecap="round" stroke-linejoin="round" stroke-miterlimit="4" stroke="#ffffff" stroke-width="2" stroke-opacity="1"><g><path d="M 10 22C 10.000001 15.3726 15.3726 9.999999 22 10M 286 10L 22 10M 298 22C 298 15.3726 292.6274 10.000001 286 10M 298 129.999962L 298 21.999996M 285.999985 153.999969C 292.627385 153.999969 297.999985 148.627369 297.999985 141.999969L 305.141685 137.714969C 306.436385 136.938169 306.436385 135.061769 305.141685 134.284969L 297.999985 129.999969M 286 153.999969L 22 153.999969M 22 153.999969C 15.3726 153.999969 10 148.627369 10 141.999969M 10 141.998978L 10 21.999998"></path></g></g></g><g id="g-root-cp_1_g-1_1qaqfgssdfaiy-stroke" data-item-order="-378440" transform="translate(25.60009765625, 566)"></g><g id="g-root-cp_0a_g-0a_1luwxccsdfbb7-stroke" data-item-order="-378432" transform="translate(41.7562255859375, 584.328125)"><g id="cp_0a_g-0a_1luwxccsdfbb7-stroke" fill="none" stroke-linecap="round" stroke-linejoin="round" stroke-miterlimit="4" stroke="#ffffff" stroke-width="2" stroke-opacity="1"><g><path d="M 39.625509 56.638981L 39.625509 61.885981L 37.306909 68.645481C 37.306909 68.645481 36.028909 68.008881 33.565909 68.008881C 31.102909 68.008881 29.343609 68.645481 29.343609 68.645481L 25.790609 60.320181L 25.790609 53.863281L 25.787109 53.863281C 27.265809 54.628481 30.419709 55.673981 32.435209 55.754381C 34.450709 55.834781 37.785209 55.754381 39.632709 55.110981L 39.625509 56.638981Z"></path></g></g><g id="cp_0a_g-0a_1luwxccsdfbb7-stroke" fill="none" stroke-linecap="round" stroke-linejoin="round" stroke-miterlimit="4" stroke="#ffffff" stroke-width="2" stroke-opacity="1"><g><path d="M 13.3859 29.9933C 11.4456 30.4701 10 32.2483 10 34.3842C 10 36.6889 11.6881 38.5962 13.871 38.8644C 15.9278 48.5204 24.3588 55.8021 34.3808 55.8021C 44.4029 55.8021 52.8338 48.5104 54.8906 38.8644C 55.8459 34.3842 55.5818 32.6523 55.5818 30.2801C 55.5818 21.8186 55.5818 22.3832 55.5818 19.2846C 55.5818 19.2846 42.9426 21.8186 34.6785 19.3564C 26.4143 16.8942 21.0669 10 21.0669 10C 21.0669 10 21.5531 22.8035 15.2334 30.1901C 14.9041 29.9999 15.6372 29.5343 13.3937 29.9999L 13.3859 29.9933Z"></path></g></g><g id="cp_0a_g-0a_1luwxccsdfbb7-stroke" fill="none" stroke-linecap="round" stroke-linejoin="round" stroke-miterlimit="4" stroke="#ffffff" stroke-width="2" stroke-opacity="1"><g><path d="M 43.780177 43.242188C 42.212877 48.046788 34.623277 48.023788 33.063477 43.242188L 43.780177 43.242188ZM 33.285484 30.239331C 33.285484 31.327131 32.414884 32.209031 31.340984 32.209031C 30.267084 32.209031 29.396484 31.327131 29.396484 30.239331C 29.396484 29.151431 30.267084 28.269531 31.340984 28.269531C 32.414884 28.269531 33.285484 29.151431 33.285484 30.239331ZM 49.063805 30.239331C 49.063805 31.327131 48.193205 32.209031 47.119305 32.209031C 46.045405 32.209031 45.174805 31.327131 45.174805 30.239331C 45.174805 29.151431 46.045405 28.269531 47.119305 28.269531C 48.193205 28.269531 49.063805 29.151431 49.063805 30.239331ZM 32.313641 30.238806C 32.313641 30.782706 31.878341 31.223706 31.341441 31.223706C 30.804441 31.223706 30.369141 30.782706 30.369141 30.238806C 30.369141 29.694806 30.804441 29.253906 31.341441 29.253906C 31.878341 29.253906 32.313641 29.694806 32.313641 30.238806ZM 48.091961 30.238806C 48.091961 30.782706 47.656661 31.223706 47.119761 31.223706C 46.582761 31.223706 46.147461 30.782706 46.147461 30.238806C 46.147461 29.694806 46.582761 29.253906 47.119761 29.253906C 47.656661 29.253906 48.091961 29.694806 48.091961 30.238806ZM 33.063682 23.354074C 33.063682 23.354074 29.745682 22.757974 27.747082 25.281274M 45.652344 23.354074C 45.652344 23.354074 48.970344 22.757974 50.968944 25.281274"></path></g></g></g><g id="g-root-cp_2_g-2_1cz9x3gsdfc3w-stroke" data-item-order="-378428" transform="translate(469.5999755859375, 566)"></g><g id="g-root-cp_0b_g-0b_18jgez0sdfcw5-stroke" data-item-order="-378422" transform="translate(477.8109130859375, 584.328125)"><g id="cp_0b_g-0b_18jgez0sdfcw5-stroke" fill="none" stroke-linecap="round" stroke-linejoin="round" stroke-miterlimit="4" stroke="#ffffff" stroke-width="2" stroke-opacity="1"><g><path d="M 25.906251 55.089381C 27.949751 55.709181 30.642951 55.909481 32.714751 55.766481C 34.786451 55.623381 38.358151 54.628481 39.83725 53.863281C 39.83725 53.863281 39.833751 60.926681 39.833751 62.817881L 29.596651 74.553181L 25.906251 67.000381L 25.906251 55.089381Z"></path></g></g><g id="cp_0b_g-0b_18jgez0sdfcw5-stroke" fill="none" stroke-linecap="round" stroke-linejoin="round" stroke-miterlimit="4" stroke="#ffffff" stroke-width="2" stroke-opacity="1"><g><path d="M 52.241801 29.9933C 54.182701 30.4701 55.628701 32.2483 55.628701 34.3841C 55.628701 36.6889 53.940101 38.5962 51.756601 38.8644C 49.699201 48.5204 41.2657 55.802 31.240701 55.802C 21.215701 55.802 12.782301 48.5104 10.724901 38.8644C 9.769301 34.3841 10.033501 32.6523 10.033501 30.2801C 10.033501 21.8186 10.033501 22.3832 10.033501 19.2846C 10.033501 19.2846 22.676501 21.8186 30.943001 19.3564C 39.209601 16.8942 44.558501 10 44.558501 10C 44.558501 10 44.072301 22.8035 50.393801 30.1901C 50.723201 29.9999 49.989801 29.5343 52.234101 29.9999L 52.241801 29.9933Z"></path></g></g><g id="cp_0b_g-0b_18jgez0sdfcw5-stroke" fill="none" stroke-linecap="round" stroke-linejoin="round" stroke-miterlimit="4" stroke="#ffffff" stroke-width="2" stroke-opacity="1"><g><path d="M 32.575368 43.238281C 31.007569 48.042881 23.415769 48.019881 21.855469 43.238281L 32.575368 43.238281ZM 32.347657 30.239331C 32.347657 31.327131 33.218157 32.209031 34.292057 32.209031C 35.365857 32.209031 36.236357 31.327131 36.236357 30.239331C 36.236357 29.151431 35.365857 28.269531 34.292057 28.269531C 33.218157 28.269531 32.347657 29.151431 32.347657 30.239331ZM 16.570313 30.239331C 16.570313 31.327131 17.440813 32.209031 18.514713 32.209031C 19.588513 32.209031 20.459013 31.327131 20.459013 30.239331C 20.459013 29.151431 19.588513 28.269531 18.514713 28.269531C 17.440813 28.269531 16.570313 29.151431 16.570313 30.239331ZM 33.320313 30.238806C 33.320313 30.782706 33.755613 31.223706 34.292513 31.223706C 34.829413 31.223706 35.264713 30.782706 35.264713 30.238806C 35.264713 29.694806 34.829413 29.253906 34.292513 29.253906C 33.755613 29.253906 33.320313 29.694806 33.320313 30.238806ZM 17.542969 30.238806C 17.542969 30.782706 17.978269 31.223706 18.515169 31.223706C 19.052069 31.223706 19.487369 30.782706 19.487369 30.238806C 19.487369 29.694806 19.052069 29.253906 18.515169 29.253906C 17.978269 29.253906 17.542969 29.694806 17.542969 30.238806ZM 32.557618 23.354075C 32.557618 23.354075 35.876617 22.757975 37.875818 25.281275M 19.965661 23.354369C 19.965661 23.354369 16.646661 22.758269 14.647461 25.281569"></path></g></g></g><g id="g-root-tx_register_zofvt8sdfaj2-stroke" data-item-order="0" transform="translate(37.5999755859375, 14)"></g><g id="g-root-tx_howcanir_hx5vbgsdfcw7-stroke" data-item-order="0" transform="translate(139.5999755859375, 122)"></g><g id="g-root-tx_register_4mbu18sdfbbc-stroke" data-item-order="0" transform="translate(175.5999755859375, 204)"></g><g id="g-root-tx_whatisth_1qbzdn0sdfcp5-stroke" data-item-order="0" transform="translate(139.5999755859375, 334)"></g><g id="g-root-tx_885yearp_1d15ccssdfb4a-stroke" data-item-order="0" transform="translate(199.5999755859375, 392)"></g><g id="g-root-tx_whatserv_v9vbv0sdfdhf-stroke" data-item-order="0" transform="translate(139.5999755859375, 450)"></g><g id="g-root-tx_wehandle_hz1akssdfbwk-stroke" data-item-order="0" transform="translate(163.5999755859375, 532)"></g></g></g><path id="w8win6a1ta05j8" d="M65.283 12.757a.35.35 0 0 0 .584.157l5.203-5.141-6.183 3.523.396 1.461zm-2.216-11.7a.35.35 0 0 0-.522.305v3.111l3.276-1.868-2.754-1.548zm3.728 2.105l-4.25 2.421v2.445l6.391-3.644-2.141-1.222zm4.708 3.303a.35.35 0 0 0 0-.609l-1.592-.9-7.365 4.199v1.782a.35.35 0 0 0 .523.305l8.435-4.777z M44.542 2.513c0-.433.355-.783.792-.783s.792.35.792.783-.355.783-.792.783-.792-.35-.792-.783zm59.171 0c0-.433.355-.783.792-.783s.792.35.792.783-.355.783-.792.783-.792-.35-.792-.783zm-85.951 7.636h-1.27v-.487c-.276.201-.864.609-1.881.609-1.202 0-2.274-.794-2.137-2.078.118-1.106 1.153-1.584 1.848-1.727l2.17-.345c0-.539-.29-.956-1.064-1.006s-1.21.305-1.571 1.017l-1.124-.605c1.218-2.631 5.029-1.764 5.029.414v4.207zm-1.27-2.86c.006.396-.062 1.112-.819 1.59-.587.37-1.841.299-1.903-.395-.049-.555.461-.791.906-.898l1.816-.297zm72.662 2.86h-1.27v-.487c-.276.201-.864.609-1.881.609-1.202 0-2.274-.794-2.137-2.078.118-1.106 1.153-1.584 1.848-1.727l2.17-.345c0-.539-.29-.956-1.064-1.006s-1.21.305-1.571 1.017l-1.124-.605c1.218-2.631 5.029-1.764 5.029.414v4.207zm-1.27-2.86c.006.396-.062 1.112-.82 1.59-.587.37-1.841.299-1.903-.395-.049-.555.461-.791.906-.898l1.816-.297zM99.096 10.149H97.85v-8.45h1.246v4.895l2.68-2.559h1.738l-2.633 2.535 2.715 3.578h-1.556l-2.077-2.707-.867.844v1.863zm6.053-6.114h-1.255v6.113h1.255V4.035zm-59.2 0h-1.255v6.113h1.255V4.035zm5.584 6.113V1.697h1.255v2.695c.361-.346 1-.485 1.47-.485 1.452 0 2.477 1.082 2.457 2.448v3.792h-1.27v-3.68c0-.408-.214-1.339-1.315-1.339-.968 0-1.342.756-1.342 1.339v3.681h-1.255zm-4.76-4.894V4.039h.621a.45.45 0 0 0 .45-.45v-.855h1.251v1.305h1.309v1.215h-1.309v3.109c0 .293.105.664.648.664.365 0 .531-.035.736-.07v1.137s-.361.113-.857.113c-1.398 0-1.777-1.051-1.777-1.788V5.254h-1.071zM36.528 4.039h-1.394l2.191 6.106h1.125l1.234-3.918 1.238 3.918h1.129l2.188-6.106h-1.383l-1.359 3.93-1.256-3.93h-1.124l-1.242 3.957-1.348-3.957zM26.212 7.141c-.02 1.566 1.187 3.129 3.223 3.129 1.566 0 2.383-.918 2.734-1.719L31.172 8c-.315.399-.801 1.094-1.738 1.094-1.145 0-1.825-.781-1.891-1.52h4.625c.074-.284.148-.995-.03-1.559-.336-1.064-1.221-2.102-2.839-2.102s-3.088 1.152-3.088 3.227zm1.363-.75h3.348c-.055-.43-.566-1.301-1.623-1.301a1.79 1.79 0 0 0-1.725 1.301zm-8.758.75c.038 1.758 1.277 3.133 3.145 3.133 1.074 0 1.723-.477 1.961-.672v.547h1.242V1.703h-1.258v2.888c-.414-.36-1.062-.68-1.93-.68-1.91 0-3.198 1.473-3.16 3.23zm1.309-.08c0 1.119.723 1.978 1.836 1.978a1.88 1.88 0 0 0 1.94-1.904c0-1.371-1.011-1.99-1.972-1.99s-1.805.798-1.805 1.916zm76.683-.028C96.771 5.275 95.532 3.9 93.664 3.9c-1.074 0-1.723.477-1.961.672v-.547h-1.242v8.22h1.258V9.583c.414.36 1.063.68 1.93.68 1.91 0 3.198-1.473 3.16-3.23zm-1.309.08c0-1.119-.723-1.978-1.836-1.978a1.88 1.88 0 0 0-1.94 1.904c0 1.371 1.011 1.99 1.972 1.99S95.5 8.231 95.5 7.113zM106.441 10.173V4.036h1.254v.382c.361-.346 1-.485 1.47-.485 1.452 0 2.477 1.082 2.457 2.448v3.792h-1.27V6.492c0-.408-.214-1.339-1.315-1.339-.969 0-1.342.756-1.342 1.339v3.681h-1.254zm-30.383-.021V1.824h1.084l4.215 5.777V1.824h1.32v8.328h-1.094l-4.207-5.796v5.796h-1.319zM5.24 10.149H4V2.377h1.014l2.664 3.597 2.654-3.592h1.03v7.766h-1.256V4.762L7.678 8.068 5.24 4.742v5.407z" transform="translate(464.199951171875, 713)" fill="#80808088" stroke="none"></path></svg>