<?xml version="1.0" encoding="UTF-8"?>
<svg version="1.1" xmlns="http://www.w3.org/2000/svg" width="500" height="150">
<path d="M0 0 C1.65 0.33 3.3 0.66 5 1 C1.07214101 7.38724791 -2.99399836 13.48929028 -7.71484375 19.3203125 C-9.10127596 20.77987654 -9.10127596 20.77987654 -9 22 C-6.69 22 -4.38 22 -2 22 C-1.25 23.625 -1.25 23.625 -1 26 C-3.28141452 29.97135119 -6.09216523 33.46905778 -9 37 C-3.5918535 33.94925069 0.01249006 29.83073008 4.046875 25.14453125 C6.07604626 22.9165012 6.94776753 22.05282292 9.9453125 21.90234375 C12.97265625 21.95117188 12.97265625 21.95117188 16 22 C16.85856655 25.4342662 16.97591583 27.61682513 16 31 C21.08930834 25.81716464 21.08930834 25.81716464 23 19 C24.32 19 25.64 19 27 19 C27 20.32 27 21.64 27 23 C29.31 23.66 31.62 24.32 34 25 C33.59007812 25.45890625 33.18015625 25.9178125 32.7578125 26.390625 C32.21898437 27.00421875 31.68015625 27.6178125 31.125 28.25 C30.59132813 28.85328125 30.05765625 29.4565625 29.5078125 30.078125 C28.0202513 31.97418746 26.99677564 33.81290005 26 36 C31.01884354 32.71844845 33.69691217 30.06473467 37 25 C41.2395515 21.46704042 44.71438056 21.73123969 50 22 C50 24.25 50 24.25 49 27 C45.52611069 29.43795371 42.26177936 31 38 31 C38 32.65 38 34.3 38 36 C44.3862874 34.82700844 48.09724358 32.21375986 52 27 C53.31318414 24.34115013 54.14756216 21.85817395 55 19 C56.32 19.33 57.64 19.66 59 20 C58.67 21.32 58.34 22.64 58 24 C60.31 24.33 62.62 24.66 65 25 C64.566875 25.55429688 64.13375 26.10859375 63.6875 26.6796875 C63.130625 27.40414062 62.57375 28.12859375 62 28.875 C61.443125 29.59429687 60.88625 30.31359375 60.3125 31.0546875 C58.81356623 32.8852085 58.81356623 32.8852085 59 35 C62.22514378 32.44988631 65.07580325 30.04465912 67.625 26.8125 C69.92829698 24.08491147 70.76277509 23.16869306 74 22 C77.453125 21.8046875 77.453125 21.8046875 81.25 21.875 C82.51328125 21.89304687 83.7765625 21.91109375 85.078125 21.9296875 C86.04234375 21.95289062 87.0065625 21.97609375 88 22 C87.61328125 22.50789063 87.2265625 23.01578125 86.828125 23.5390625 C83.74572807 27.61331983 80.78428845 31.71647931 78 36 C81.52684858 33.13380029 84.86528486 30.33068546 87.6875 26.75 C89.95527108 24.05319114 90.79694843 23.15981901 94 22 C97.453125 21.8046875 97.453125 21.8046875 101.25 21.875 C102.51328125 21.89304687 103.7765625 21.91109375 105.078125 21.9296875 C106.04234375 21.95289062 107.0065625 21.97609375 108 22 C107.61328125 22.50789063 107.2265625 23.01578125 106.828125 23.5390625 C103.74572807 27.61331983 100.78428845 31.71647931 98 36 C102.08197765 32.59144506 105.87810948 29.2938201 109.125 25.0625 C111.58739644 22.05663186 111.58739644 22.05663186 115.1875 21.5625 C116.115625 21.706875 117.04375 21.85125 118 22 C118.99 22 119.98 22 121 22 C123.33333333 22 125.66666667 22 128 22 C128 22.66 128 23.32 128 24 C128.99 23.34 129.98 22.68 131 22 C133.33199388 21.92094936 135.66832622 21.91201231 138 22 C137.73672346 28.45027515 135.49335977 31.47915791 131 36 C135.27771179 33.36671617 135.27771179 33.36671617 138.6875 29.75 C139.120625 29.1725 139.55375 28.595 140 28 C140.99 28 141.98 28 143 28 C141.00193076 32.48347244 138.18564559 35.4383849 134 38 C130.0625 38.375 130.0625 38.375 127 38 C126.68161298 34.79907334 126.8047395 33.31331341 128.53125 30.54296875 C129.1809375 29.76566406 129.830625 28.98835938 130.5 28.1875 C131.1496875 27.39730469 131.799375 26.60710937 132.46875 25.79296875 C133.22671875 24.90544922 133.22671875 24.90544922 134 24 C129.48160079 26.85857909 126.53450454 29.42968554 123.4375 33.8125 C120.42389799 37.93063487 120.42389799 37.93063487 116.5625 38.5625 C115.716875 38.376875 114.87125 38.19125 114 38 C114.38671875 37.49210937 114.7734375 36.98421875 115.171875 36.4609375 C118.25427193 32.38668017 121.21571155 28.28352069 124 24 C119.49618272 27.0177862 115.91189677 29.83580855 112.875 34.375 C111.453125 36.4296875 111.453125 36.4296875 110 38 C106.625 38.5 106.625 38.5 104 38 C104.33 37.01 104.66 36.02 105 35 C104.50757813 35.48855469 104.01515625 35.97710937 103.5078125 36.48046875 C100.03094433 38.58716924 96.8136746 38.40057412 92.875 38.3125 C92.14667969 38.31572266 91.41835938 38.31894531 90.66796875 38.32226562 C85.26736111 38.26736111 85.26736111 38.26736111 83 36 C82.01 36.99 82.01 36.99 81 38 C78.29077199 38.19852102 75.70696821 38.27839477 73 38.25 C71.89398438 38.26160156 71.89398438 38.26160156 70.765625 38.2734375 C65.2533196 38.2533196 65.2533196 38.2533196 63 36 C62.01 36.66 61.02 37.32 60 38 C57.66800612 38.07905064 55.33167378 38.08798769 53 38 C52.25 36.3125 52.25 36.3125 52 34 C54.28222047 30.61893264 57.06944646 27.82589091 60 25 C58.68 25 57.36 25 56 25 C55.73960937 25.58523437 55.47921875 26.17046875 55.2109375 26.7734375 C53.92349225 29.14067554 52.53435473 30.73232086 50.625 32.625 C50.03976563 33.21539062 49.45453125 33.80578125 48.8515625 34.4140625 C45.47550503 37.30579105 42.81268676 38.27968352 38.375 38.25 C37.59898437 38.25515625 36.82296875 38.2603125 36.0234375 38.265625 C34 38 34 38 32 36 C31.2265625 36.495 31.2265625 36.495 30.4375 37 C27.21973488 38.32010877 24.4429472 38.13242105 21 38 C20.5625 35.9375 20.5625 35.9375 21 33 C23.12080183 30.42739828 25.50627561 28.20745501 28 26 C23.75439037 26.78885022 22.58619 28.57955516 20 32 C16.99727182 34.00181879 14.39819024 34.86726992 11 36 C10.01 36.66 9.02 37.32 8 38 C5.23979004 38.37167184 2.81147524 38.17850636 0 38 C-0.66 37.34 -1.32 36.68 -2 36 C-2.99 36.66 -3.98 37.32 -5 38 C-7.33199388 38.07905064 -9.66832622 38.08798769 -12 38 C-12.71484375 36.296875 -12.71484375 36.296875 -13 34 C-11.56640625 31.640625 -11.56640625 31.640625 -9.5625 29.25 C-8.90378906 28.45078125 -8.24507813 27.6515625 -7.56640625 26.828125 C-7.04949219 26.22484375 -6.53257812 25.6215625 -6 25 C-10.33493512 27.0162489 -13.37032229 29.78008646 -16.21875 33.66015625 C-17.4375 35.3125 -17.4375 35.3125 -20 38 C-23.25 38.4375 -23.25 38.4375 -26 38 C-26.33 37.67 -26.66 37.34 -27 37 C-27.33 37.33 -27.66 37.66 -28 38 C-29.4887186 38.08669432 -30.981445 38.10703494 -32.47265625 38.09765625 C-33.37177734 38.09443359 -34.27089844 38.09121094 -35.19726562 38.08789062 C-36.61555664 38.07532227 -36.61555664 38.07532227 -38.0625 38.0625 C-39.01189453 38.05798828 -39.96128906 38.05347656 -40.93945312 38.04882812 C-43.29303065 38.0370011 -45.64648477 38.02052025 -48 38 C-48.495 36.02 -48.495 36.02 -49 34 C-49.680625 34.66 -50.36125 35.32 -51.0625 36 C-54.64457375 38.43885872 -56.75519536 38.33292585 -61 38 C-61.75 36.375 -61.75 36.375 -62 34 C-59.71858548 30.02864881 -56.90783477 26.53094222 -54 23 C-56.3178223 22.60714131 -56.3178223 22.60714131 -59 23 C-61.28663935 25.01323018 -61.28663935 25.01323018 -63.3125 27.6875 C-71.78720483 37.54668632 -71.78720483 37.54668632 -78.72265625 38.29296875 C-81.17313158 38.31020135 -83.56089341 38.22491762 -86 38 C-86.33 36.35 -86.66 34.7 -87 33 C-85.02 32.505 -85.02 32.505 -83 32 C-83 33.32 -83 34.64 -83 36 C-72.92162237 34.57512592 -66.9024407 24.46523135 -61 17 C-60.67 16.67 -60.34 16.34 -60 16 C-61.32 15.67 -62.64 15.34 -64 15 C-64 13.35 -64 11.7 -64 10 C-62.68 9.34 -61.36 8.68 -60 8 C-60 7.34 -60 6.68 -60 6 C-65.83613239 8.13243299 -69.11999279 10.23998557 -72 16 C-72.66 16 -73.32 16 -74 16 C-73.58485103 11.1565954 -71.53791301 9.18412171 -68 6 C-67.67 5.67 -67.34 5.34 -67 5 C-65.48071962 4.92820036 -63.95832518 4.91607993 -62.4375 4.9375 C-61.61121094 4.94652344 -60.78492188 4.95554687 -59.93359375 4.96484375 C-59.29550781 4.97644531 -58.65742188 4.98804688 -58 5 C-57.375 7.375 -57.375 7.375 -57 10 C-57.66 10.66 -58.32 11.32 -59 12 C-54.52826088 10.60258152 -51.48662721 8.12235607 -47.96484375 5.14453125 C-46 4 -46 4 -43.75390625 4.32421875 C-43.17511719 4.54722656 -42.59632813 4.77023438 -42 5 C-42.68707031 5.60328125 -43.37414062 6.2065625 -44.08203125 6.828125 C-45.43361328 8.02695312 -45.43361328 8.02695312 -46.8125 9.25 C-47.70582031 10.03890625 -48.59914062 10.8278125 -49.51953125 11.640625 C-51.64128225 13.65879445 -53.34254423 15.59916705 -55 18 C-50.38142941 17.52250072 -48.34106544 15.82587432 -45.0625 12.625 C-41.02074872 8.69213901 -37.22961451 5.37036864 -31.4453125 4.70703125 C-30.67960937 4.74183594 -29.91390625 4.77664062 -29.125 4.8125 C-28.34382813 4.83957031 -27.56265625 4.86664063 -26.7578125 4.89453125 C-26.17773438 4.92933594 -25.59765625 4.96414062 -25 5 C-24.505 6.98 -24.505 6.98 -24 9 C-25.65 9.33 -27.3 9.66 -29 10 C-29.495 8.515 -29.495 8.515 -30 7 C-35.41006415 10.98954451 -40.68184466 15.12379017 -45.8984375 19.36328125 C-48 21 -48 21 -50 22 C-50.12375 22.9075 -50.2475 23.815 -50.375 24.75 C-51.10278074 28.53445983 -52.38334817 30.22476321 -55 33 C-55.99 33.495 -55.99 33.495 -57 34 C-57.33 34.99 -57.66 35.98 -58 37 C-52.53720375 33.95099744 -49.98771902 30.44663822 -47 25 C-45 27 -45 27 -45 29 C-44.62488281 28.4946875 -44.24976563 27.989375 -43.86328125 27.46875 C-43.35152344 26.8190625 -42.83976562 26.169375 -42.3125 25.5 C-41.81363281 24.8503125 -41.31476563 24.200625 -40.80078125 23.53125 C-39 22 -39 22 -36.29296875 21.78125 C-35.53628906 21.8534375 -34.77960938 21.925625 -34 22 C-34.38671875 22.50789063 -34.7734375 23.01578125 -35.171875 23.5390625 C-38.25427193 27.61331983 -41.21571155 31.71647931 -44 36 C-36.56800997 31.96549113 -32.00545218 25.62104481 -27 19 C-25.68 19.33 -24.36 19.66 -23 20 C-23.33 20.66 -23.66 21.32 -24 22 C-23.91348369 23.54613014 -23.75997364 25.08909387 -23.5625 26.625 C-23.375 28.08333333 -23.1875 29.54166667 -23 31 C-17.86203701 25.41222289 -13.45964594 19.55951638 -9.25 13.25 C-8.13093709 11.58805073 -7.01117031 9.92657514 -5.890625 8.265625 C-5.40625977 7.54149414 -4.92189453 6.81736328 -4.42285156 6.07128906 C-3.00223976 4.00326049 -1.51939965 1.99625046 0 0 Z M6.87890625 28.109375 C4.76606648 30.23539256 3.70755489 32.08133606 3 35 C3.66 35.66 4.32 36.32 5 37 C9.18385169 34.48968898 12.01140213 32.52958403 14 28 C14.25196129 25.29046449 14.25196129 25.29046449 14 23 C11.44922033 23 8.69439951 26.51148111 6.87890625 28.109375 Z M46 23 C44.35 24.65 42.7 26.3 41 28 C42.65 27.34 44.3 26.68 46 26 C46 25.01 46 24.02 46 23 Z M71.45703125 28.4609375 C69.85118659 30.16440124 69.85118659 30.16440124 68 33 C68.30335173 35.15338867 68.30335173 35.15338867 69 37 C70.65809558 35.61875523 72.30110507 34.21938652 73.9375 32.8125 C74.85402344 32.03519531 75.77054688 31.25789063 76.71484375 30.45703125 C79.14170172 27.84764038 79.70843302 26.49260024 80 23 C77.01656434 23 73.55015222 26.47909638 71.45703125 28.4609375 Z M91.45703125 28.4609375 C89.85118659 30.16440124 89.85118659 30.16440124 88 33 C88.30335173 35.15338867 88.30335173 35.15338867 89 37 C90.65809558 35.61875523 92.30110507 34.21938652 93.9375 32.8125 C94.85402344 32.03519531 95.77054688 31.25789063 96.71484375 30.45703125 C99.14170172 27.84764038 99.70843302 26.49260024 100 23 C97.01656434 23 93.55015222 26.47909638 91.45703125 28.4609375 Z M-29 26 C-29.82322001 27.08084641 -30.60854375 28.19068676 -31.375 29.3125 C-33.07279139 31.7966917 -34.81693652 33.92545137 -37 36 C-36.01 36.33 -35.02 36.66 -34 37 C-31.22306403 35.58018323 -31.22306403 35.58018323 -29 33 C-28.10944264 29.35817665 -28.10944264 29.35817665 -28 26 C-28.33 26 -28.66 26 -29 26 Z M107 31 C107 34 107 34 107 34 Z " fill="#FAF4F4" transform="translate(201,46)"/>
<path d="M0 0 C0.33 0.66 0.66 1.32 1 2 C1.66 1.34 2.32 0.68 3 0 C9.32258065 -0.33870968 9.32258065 -0.33870968 12 1 C12.66 0.67 13.32 0.34 14 0 C15.99960012 -0.039992 18.00047242 -0.04346799 20 0 C20.75 1.625 20.75 1.625 21 4 C18.93218369 7.54482797 16.45854123 10.72194503 14 14 C14.54269531 13.50628906 15.08539063 13.01257813 15.64453125 12.50390625 C16.35996094 11.86324219 17.07539063 11.22257812 17.8125 10.5625 C18.87404297 9.60537109 18.87404297 9.60537109 19.95703125 8.62890625 C22 7 22 7 25 6 C23.44303593 9.82163907 20.96591316 12.18618495 18 15 C17.67 15.33 17.34 15.66 17 16 C14.32941149 16.14115161 11.67567762 16.04247107 9 16 C9.29123499 10.02968261 12.02814384 7.105466 16 3 C10.82553876 4.98374265 7.97807182 9.52404965 4.53515625 13.6640625 C2 16 2 16 -0.81640625 16.3359375 C-1.53699219 16.22507812 -2.25757813 16.11421875 -3 16 C-1.50923566 12.7173068 0.38620321 10.06922559 2.625 7.25 C3.57246094 6.05117187 3.57246094 6.05117187 4.5390625 4.828125 C5.02117187 4.22484375 5.50328125 3.6215625 6 3 C2.90237257 4.37521042 0.80008263 5.95427776 -1.5625 8.375 C-2.16964844 8.99246094 -2.77679688 9.60992187 -3.40234375 10.24609375 C-5.10945715 12.03194477 -5.10945715 12.03194477 -6.625 14.4375 C-8 16 -8 16 -10.6875 16.25 C-11.450625 16.1675 -12.21375 16.085 -13 16 C-11.87548273 13.0280615 -10.77706209 10.66559313 -9 8 C-9 6.68 -9 5.36 -9 4 C-6.27696716 0.36928954 -4.50373991 -0.50041555 0 0 Z " fill="#FAF4F4" transform="translate(364,68)"/>
<path d="M0 0 C1.65 0 3.3 0 5 0 C4.67 1.32 4.34 2.64 4 4 C2.35 3.67 0.7 3.34 -1 3 C-0.67 2.01 -0.34 1.02 0 0 Z " fill="#FAF4F4" transform="translate(167,60)"/>
</svg>
